<?xml version="1.0" encoding="utf-8"?>
<!-- Generator: Adobe Illustrator 23.0.0, SVG Export Plug-In . SVG Version: 6.00 Build 0)  -->
<svg version="1.1"
	 id="Capa_1" xmlns:cc="http://creativecommons.org/ns#" xmlns:dc="http://purl.org/dc/elements/1.1/" xmlns:rdf="http://www.w3.org/1999/02/22-rdf-syntax-ns#" xmlns:svg="http://www.w3.org/2000/svg"
	 xmlns="http://www.w3.org/2000/svg" xmlns:xlink="http://www.w3.org/1999/xlink" x="0px" y="0px" viewBox="0 0 511.6 511.6"
	 style="enable-background:new 0 0 511.6 511.6;" xml:space="preserve">
<style type="text/css">
	.st0{fill:#212121;}
</style>
<g id="g131">
	<g id="g129">
		<path id="path125" class="st0" d="M9.1,201H402v54.8c0,2.5,0.9,4.6,2.7,6.4c1.8,1.8,4,2.7,6.4,2.7c2.7,0,4.9-0.9,6.6-2.6
			l91.4-91.4c1.7-1.7,2.6-3.9,2.6-6.6c0-2.7-0.9-4.9-2.6-6.6L418,66.8c-2.3-1.9-4.6-2.9-6.9-2.9c-2.7,0-4.9,0.9-6.6,2.6
			c-1.7,1.7-2.6,3.9-2.6,6.6v54.8H9.1c-2.5,0-4.6,0.9-6.4,2.7S0,134.6,0,137v54.8c0,2.5,0.9,4.6,2.7,6.4S6.7,201,9.1,201z"/>
		<path id="path127" class="st0" d="M502.5,310.6H109.6v-54.8c0-2.5-0.9-4.6-2.7-6.4c-1.8-1.8-4-2.7-6.4-2.7c-2.7,0-4.9,0.9-6.6,2.6
			L2.6,340.6c-1.7,1.7-2.6,3.9-2.6,6.6c0,2.5,0.9,4.6,2.6,6.3l91.1,91.4c2.3,1.9,4.6,2.9,6.9,2.9c2.5,0,4.6-0.9,6.4-2.7
			c1.8-1.8,2.7-3.9,2.7-6.4v-54.8h392.9c2.5,0,4.6-0.9,6.4-2.7c1.8-1.8,2.7-3.9,2.7-6.4v-54.8c0-2.5-0.9-4.6-2.7-6.4
			C507.1,311.5,505,310.6,502.5,310.6z"/>
	</g>
</g>
<g id="g133">
</g>
<g id="g135">
</g>
<g id="g137">
</g>
<g id="g139">
</g>
<g id="g141">
</g>
<g id="g143">
</g>
<g id="g145">
</g>
<g id="g147">
</g>
<g id="g149">
</g>
<g id="g151">
</g>
<g id="g153">
</g>
<g id="g155">
</g>
<g id="g157">
</g>
<g id="g159">
</g>
<g id="g161">
</g>
</svg>
