<svg xmlns="http://www.w3.org/2000/svg" viewBox="0 0 1077.92 427"><defs><style>.cls-1{fill:#fd7f23;}.cls-2{fill:#fed330;}.cls-3{fill:#ff7f00;}.cls-4{fill:#383838;}</style></defs><title>lamyne_1</title><g id="Calque_2" data-name="Calque 2"><g id="Calque_2-2" data-name="Calque 2"><path class="cls-1" d="M519.13,217.79s1.38-56.18,1.83-73.15-2.29-64,6-64,10.32,15.59,10.32,47.46v84.38s63-1.83,65.35,6.88-41.74,8.94-41.74,8.94H528.3S519.13,229.48,519.13,217.79Z"/><path class="cls-1" d="M679.87,86.17c-1.38-3.21-5.5-8-10.55,1.6S616.12,216,616.12,216s-4.12,10.78,5.74,10.78,20.4-35.31,22.93-41.53,8.25-7.31,13.3-6.85,33.24.46,39.44.46,9.86,14.67,17,31.64,7.8,16.28,17.89,16.28S681.25,89.38,679.87,86.17ZM659,163.44c-6.88,0-4.35-5.84-4.35-5.84s15.59-45.06,19.93-45.06,17,39.44,19.51,46.78S665.88,163.44,659,163.44Z"/><path class="cls-1" d="M523.87,423s-7.74,1.59-7.74-22.54V286.11s.69-37.35,10-37.35S545.28,259,556,287.93s37.57,101.33,40.31,101.33,48-121.14,54-128.88,11.62-11.62,15-11.62,12.3,1.82,12.3,24.59v98.83s.68,50.8-8.2,50.8-11.84-6.85-11.84-37.59,1.37-95,.68-96.1-3.18.69-7.74,18-43.93,112.49-53.62,112.49-54.77-134.06-59.55-135-3.42,12.07-4.1,77.88S529.57,420,523.87,423Z"/><path class="cls-2" d="M707.84,255.85s37.91,72.31,45.56,72.31,41.27-79.4,54.42-79.4S812.4,267,771.13,341c-9.17,16.2-6.73,51.36-7.34,67.26S753.4,423,753.4,423s-12.23,2.09-11.93-20.23,2.14-48.3-10.08-69.7-48.92-76.55-35.78-84.29C703.87,244.69,707.84,255.85,707.84,255.85Z"/><path class="cls-1" d="M835.33,423s-8.56-.4-8.86-25.47-3.36-138.81,4.43-146.14,17.28,4.89,33.48,27.51S932,388.39,936.53,388.39s-.3-119.24,4.59-134.22,14.06-5.14,14.06,12.23S964.05,423,947.84,423s-85.91-116.58-89-122.39-14.37-25.07-13.46-4.28S851.23,421.91,835.33,423Z"/><path class="cls-1" d="M979,412.54s.92-129.63,0-145.22,1.53-17.74,17.12-17.74,81.63-3.36,81.63,7.95-36.69,9.17-71.54,9.17c0,0-3.67-1.16-3.67,7.95v45s-1.22,5.5,5.5,5.5,69.71-2.75,69.71,7-17.13,10.09-68.79,10.09c-9.78.31-6.42,5.81-6.42,11s-3.67,52,3.67,52,75.21-1.22,71.54,9.48S1039.56,423,1005,423C987,423.25,979,423.55,979,412.54Z"/><path class="cls-3" d="M298,123V6a6,6,0,0,0-6-6H275a6,6,0,0,0-6,6V138.54a5,5,0,0,0,3.52,4.77A119.72,119.72,0,0,1,298,154.49a120.87,120.87,0,1,1-94.61-11.76,5,5,0,0,0,3.61-4.79V6a6,6,0,0,0-6-6H184a6,6,0,0,0-6,6V122.15A149,149,0,0,0,88,258.4c-.32,81.76,66.14,149,147.89,149.6A149,149,0,0,0,298,123Z"/><path class="cls-4" d="M287.34,186.4l-50.87,50.29-49.8-50.28a2,2,0,0,0-2.59-.22c-17.38,12.6-30.66,29.47-34.35,34.38a2,2,0,0,0,.19,2.61l60.58,60.59v55a2,2,0,0,0,1.68,2c21.2,3.38,42.52.85,48.6,0a2,2,0,0,0,1.72-2v-55l61.6-60.6a2,2,0,0,0,.23-2.6c-12.61-17.39-29.49-30.67-34.39-34.35A2,2,0,0,0,287.34,186.4Z"/><path class="cls-4" d="M80.93,359.05A185.24,185.24,0,0,1,125,111.12V21L0,78V427H154.24A183.51,183.51,0,0,1,80.93,359.05Z"/><path class="cls-4" d="M395.5,359.05a185.24,185.24,0,0,0-44.07-247.93V21l125,57V427H322.19A183.51,183.51,0,0,0,395.5,359.05Z"/></g></g></svg>