<?xml version="1.0" encoding="utf-8"?>
<!-- Generator: Adobe Illustrator 23.0.0, SVG Export Plug-In . SVG Version: 6.00 Build 0)  -->
<svg version="1.1"
	 id="Capa_1" xmlns:cc="http://creativecommons.org/ns#" xmlns:dc="http://purl.org/dc/elements/1.1/" xmlns:rdf="http://www.w3.org/1999/02/22-rdf-syntax-ns#" xmlns:svg="http://www.w3.org/2000/svg"
	 xmlns="http://www.w3.org/2000/svg" xmlns:xlink="http://www.w3.org/1999/xlink" x="0px" y="0px" viewBox="0 0 512 512"
	 style="enable-background:new 0 0 512 512;" xml:space="preserve">
<style type="text/css">
	.st0{fill:#501B4A;}
</style>
<g id="g5768">
	<g id="g5766">
		<path id="path5764" class="st0" d="M321.2,310.9H184c-3.8,0-6.9,3.1-6.9,6.9s3.1,6.9,6.9,6.9h61.7v130.3c0,3.8,3.1,6.9,6.9,6.9
			c3.8,0,6.9-3.1,6.9-6.9V324.6h61.7c3.8,0,6.9-3.1,6.9-6.9S325,310.9,321.2,310.9z"/>
	</g>
</g>
<g id="g5774">
	<g id="g5772">
		<path id="path5770" class="st0" d="M396.6,249.1c-18.9,0-34.3,15.4-34.3,34.3v54.9c0,3.8-3.1,6.9-6.9,6.9h-34.3
			c-11.4,0-20.6,9.2-20.6,20.6v75.5c0,11.4,9.2,20.6,20.6,20.6c11.4,0,20.6-9.2,20.6-20.6v-48c0-3.8,3.1-6.9,6.9-6.9h61.7
			c11.4,0,20.6-9.2,20.6-20.6v-82.3C430.9,264.5,415.6,249.1,396.6,249.1z M417.2,365.8c0,3.8-3.1,6.9-6.9,6.9h-61.7
			c-11.4,0-20.6,9.2-20.6,20.6v48c0,3.8-3.1,6.9-6.9,6.9s-6.9-3.1-6.9-6.9v-75.5c0-3.8,3.1-6.9,6.9-6.9h34.3
			c11.4,0,20.6-9.2,20.6-20.6v-54.9c0-11.4,9.2-20.6,20.6-20.6c11.4,0,20.6,9.2,20.6,20.6V365.8z"/>
	</g>
</g>
<g id="g5780">
	<g id="g5778">
		<path id="path5776" class="st0" d="M396.6,173.7c-18.9,0-34.3,15.4-34.3,34.3c0,18.9,15.4,34.3,34.3,34.3
			c18.9,0,34.3-15.4,34.3-34.3S415.6,173.7,396.6,173.7z M396.6,228.6c-11.4,0-20.6-9.2-20.6-20.6c0-11.4,9.2-20.6,20.6-20.6
			c11.4,0,20.6,9.2,20.6,20.6C417.2,219.3,408,228.6,396.6,228.6z"/>
	</g>
</g>
<g id="g5786">
	<g id="g5784">
		<path id="path5782" class="st0" d="M190.8,345.2h-34.3c-3.8,0-6.9-3.1-6.9-6.9v-54.9c0-18.9-15.4-34.3-34.3-34.3
			s-34.3,15.4-34.3,34.3v82.3c0,11.4,9.2,20.6,20.6,20.6h61.7c3.8,0,6.9,3.1,6.9,6.9v48c0,11.4,9.2,20.6,20.6,20.6
			s20.6-9.2,20.6-20.6v-75.5C211.4,354.4,202.2,345.2,190.8,345.2z M197.7,441.2c0,3.8-3.1,6.9-6.9,6.9c-3.8,0-6.9-3.1-6.9-6.9v-48
			c0-11.4-9.2-20.6-20.6-20.6h-61.7c-3.8,0-6.9-3.1-6.9-6.9v-82.3c0-11.4,9.2-20.6,20.6-20.6s20.6,9.2,20.6,20.6v54.9
			c0,11.4,9.2,20.6,20.6,20.6h34.3c3.8,0,6.9,3.1,6.9,6.9V441.2z"/>
	</g>
</g>
<g id="g5792">
	<g id="g5790">
		<path id="path5788" class="st0" d="M115.4,173.7c-18.9,0-34.3,15.4-34.3,34.3c0,18.9,15.4,34.3,34.3,34.3
			c18.9,0,34.3-15.4,34.3-34.3S134.3,173.7,115.4,173.7z M115.4,228.6c-11.4,0-20.6-9.2-20.6-20.6c0-11.4,9.2-20.6,20.6-20.6
			s20.6,9.2,20.6,20.6C135.9,219.3,126.7,228.6,115.4,228.6z"/>
	</g>
</g>
<g id="g5798">
	<g id="g5796">
		<path id="path5794" class="st0" d="M354,224.3c-1.6-2-4.2-2.9-6.7-2.4l-19.5,3.9c-1.6,0.3-3.3-0.1-4.6-1.1c-1.3-1-2-2.6-2-4.3
			c0-10.6-8.6-19.2-19.2-19.2h-98.8c-10.6,0-19.2,8.6-19.2,19.2V278c0,10.6,8.6,19.2,19.2,19.2H302c10.6,0,19.2-8.6,19.2-19.2v-16
			c0-1.7,0.7-3.3,2.1-4.3l29.7-23.7C355.8,231.6,356.3,227.2,354,224.3z M314.7,246.9c-4.6,3.6-7.2,9.2-7.2,15v16
			c0,3-2.5,5.5-5.5,5.5h-98.8c-3,0-5.5-2.5-5.5-5.5v-57.6c0-3,2.5-5.5,5.5-5.5H302c3,0,5.5,2.5,5.5,5.5c0,9.6,7.1,17.8,16.6,19.1
			L314.7,246.9z"/>
	</g>
</g>
<g id="g5804">
	<g id="g5802">
		<path id="path5800" class="st0" d="M307.5,50.2H190.8c-11.4,0-20.6,9.2-20.6,20.6v54.9c0,7.1,3.7,13.8,9.8,17.5l-22.4,33.5
			c-1.9,2.8-1.4,6.5,1,8.8c2.4,2.3,6.2,2.5,8.8,0.5l51.2-38.4c1.2-0.9,2.6-1.4,4.1-1.4h84.6c11.4,0,20.6-9.2,20.6-20.6V70.8
			C328,59.4,318.8,50.2,307.5,50.2z M314.3,125.7c0,3.8-3.1,6.9-6.9,6.9h-84.6c-4.5,0-8.8,1.5-12.3,4.1L191.3,151l5.2-7.8
			c2.1-3.1,1.3-7.4-1.9-9.5c-1.1-0.8-2.5-1.2-3.8-1.2c-3.8,0-6.9-3.1-6.9-6.9V70.8c0-3.8,3.1-6.9,6.9-6.9h116.6
			c3.8,0,6.9,3.1,6.9,6.9V125.7z"/>
	</g>
</g>
<g id="g5810">
	<g id="g5808">
		<path id="path5806" class="st0" d="M293.7,91.4h-89.2c-3.8,0-6.9,3.1-6.9,6.9s3.1,6.9,6.9,6.9h89.2c3.8,0,6.9-3.1,6.9-6.9
			S297.5,91.4,293.7,91.4z"/>
	</g>
</g>
<g id="g5816">
	<g id="g5814">
		<path id="path5812" class="st0" d="M286.9,242.3h-68.6c-3.8,0-6.9,3.1-6.9,6.9s3.1,6.9,6.9,6.9h68.6c3.8,0,6.9-3.1,6.9-6.9
			S290.7,242.3,286.9,242.3z"/>
	</g>
</g>
<g id="g5818">
</g>
<g id="g5820">
</g>
<g id="g5822">
</g>
<g id="g5824">
</g>
<g id="g5826">
</g>
<g id="g5828">
</g>
<g id="g5830">
</g>
<g id="g5832">
</g>
<g id="g5834">
</g>
<g id="g5836">
</g>
<g id="g5838">
</g>
<g id="g5840">
</g>
<g id="g5842">
</g>
<g id="g5844">
</g>
<g id="g5846">
</g>
</svg>
