<svg xmlns="http://www.w3.org/2000/svg" viewBox="0 0 617.54 111.63"><title>sofffa</title><g id="Calque_2" data-name="Calque 2"><g id="Soffa"><path d="M17.81,87.16a70.64,70.64,0,0,0,10.41,3.78A44.75,44.75,0,0,0,40,92.49q16.71,0,16.71-11.28a9.58,9.58,0,0,0-1.9-6,16.41,16.41,0,0,0-5.43-4.32,49.85,49.85,0,0,0-8.5-3.4c-3.32-1-7-2.16-11.14-3.39a91.26,91.26,0,0,1-13-4.71,34.09,34.09,0,0,1-9.16-6,22.69,22.69,0,0,1-5.5-8A29.2,29.2,0,0,1,.22,34.43,35.67,35.67,0,0,1,3.15,19.61,29.84,29.84,0,0,1,11.29,8.8,36.24,36.24,0,0,1,23.38,2.24,47.76,47.76,0,0,1,38.19,0,54.81,54.81,0,0,1,58.42,3.63c6.16,2.42,9,3.57,13.62,6.86L61.87,26.56a44,44,0,0,0-6.6-3.63,54.9,54.9,0,0,0-8.43-3,34.81,34.81,0,0,0-9.24-1.24q-8.35,0-12.46,3.24A11,11,0,0,0,21,31a9.68,9.68,0,0,0,1.54,5.63,13.4,13.4,0,0,0,4.47,3.94,36.73,36.73,0,0,0,7.4,3.09q4.47,1.38,10.34,2.93,7.62,2.16,13.85,4.63A37.18,37.18,0,0,1,69.2,57.44a25.32,25.32,0,0,1,6.67,8.88,30.79,30.79,0,0,1,2.35,12.73,33.16,33.16,0,0,1-3.16,15.06,27.39,27.39,0,0,1-8.5,10.11,36.21,36.21,0,0,1-12.32,5.64,58.94,58.94,0,0,1-14.58,1.77,74.78,74.78,0,0,1-23.17-3.7c-7.62-2.47-8.38-3.19-16.49-7.7L11.59,83.87S15.27,86,17.81,87.16Z"/><polygon points="459.93 20.69 459.93 2.01 386.28 2.01 386.28 48.95 362.5 48.95 318.96 48.95 318.96 20.69 371.31 20.69 371.31 2.01 297.66 2.01 297.66 48.95 230.34 48.95 230.34 20.69 282.68 20.69 282.68 2.01 209.03 2.01 209.03 111.63 230.34 111.63 230.34 66.24 297.66 66.24 297.66 111.63 318.96 111.63 318.96 66.24 362.5 66.24 386.28 66.24 386.28 111.63 407.59 111.63 407.59 66.24 451.13 66.24 459.93 66.24 459.93 48.95 451.13 48.95 407.59 48.95 407.59 20.69 459.93 20.69"/><path d="M500.56,2h21.77L570.5,111.63H545.16L533.39,84.3H489.14l-11.59,27.33H452.21Zm28.37,67.32L511.44,26.25,493.25,69.33Z"/><path d="M143.62,4.14a53.75,53.75,0,1,0,53.74,53.75A53.75,53.75,0,0,0,143.62,4.14Zm0,87.34a33.59,33.59,0,1,1,33.59-33.59A33.59,33.59,0,0,1,143.62,91.48Z"/><circle cx="604.14" cy="98.23" r="13.4"/></g></g></svg>