<?xml version="1.0" encoding="utf-8"?>
<!-- Generator: Adobe Illustrator 23.0.0, SVG Export Plug-In . SVG Version: 6.00 Build 0)  -->
<svg version="1.1" id="Calque_1" xmlns="http://www.w3.org/2000/svg" xmlns:xlink="http://www.w3.org/1999/xlink" x="0px" y="0px"
	 viewBox="0 0 651.7 242.5" style="enable-background:new 0 0 651.7 242.5;" xml:space="preserve">
<style type="text/css">
	.st0{enable-background:new    ;}
	.st1{fill:#E94C43;}
</style>
<title>anciela</title>
<g>
	<g id="Calque_3">
		<g class="st0">
			<path class="st1" d="M20,190.4c-1.9,0-3.9-0.3-6-0.9c-2.1-0.6-4.1-1.4-5.8-2.4c-1.8-1-3.2-2.3-4.4-3.7c-1.2-1.5-1.8-3.1-1.8-4.8
				c0-0.3,0.1-1,0.4-2.2L44.9,37.9c1-3.4,3.3-5.8,6.8-7.4c3.5-1.5,7.3-2.3,11.4-2.3c4.3,0,8.1,0.8,11.7,2.3c3.5,1.5,5.8,4,6.8,7.4
				l42.5,138.4c0.3,1.2,0.4,1.9,0.4,2.2c0,1.8-0.6,3.3-1.8,4.7c-1.2,1.4-2.6,2.6-4.4,3.7c-1.8,1.1-3.7,1.9-5.8,2.5
				c-2.1,0.6-4.1,0.9-6,0.9c-2.5,0-4.6-0.4-6.3-1.3c-1.7-0.9-2.8-2.3-3.4-4.4l-8.4-29.3H38.1l-8.4,29.3c-0.6,2.1-1.7,3.5-3.4,4.4
				C24.6,189.9,22.5,190.4,20,190.4z M82.3,133L63.1,65.4L44,133H82.3z"/>
			<path class="st1" d="M165.8,181.4c0,2.2-1.4,4.3-4.3,6.2c-2.9,1.9-6.2,2.9-10,2.9c-4.3,0-7.7-1-10.2-2.9c-2.6-1.9-3.8-4-3.8-6.2
				V94.7c0-2.6,1.3-4.8,3.8-6.4c2.6-1.6,6-2.4,10.2-2.4c3.4,0,6.3,0.8,8.8,2.4c2.5,1.6,3.7,3.7,3.7,6.4v6.6
				c2.1-4.3,5.6-8.1,10.8-11.5c5.1-3.4,11.4-5.2,18.7-5.2c5,0,9.8,1.2,14.4,3.5c4.6,2.3,8.7,5.6,12.1,9.7c3.4,4.1,6.2,8.8,8.2,14.2
				c2.1,5.4,3.1,11.1,3.1,17.3v52.1c0,2.9-1.5,5.2-4.5,6.7c-3,1.5-6.3,2.3-9.8,2.3c-3.4,0-6.6-0.8-9.6-2.3c-3-1.5-4.5-3.8-4.5-6.7
				v-52.1c0-2.5-0.5-4.9-1.5-7.3c-1-2.3-2.4-4.5-4.1-6.4c-1.7-1.9-3.7-3.4-6-4.5c-2.3-1.1-4.8-1.6-7.5-1.6c-4.5,0-8.7,1.8-12.4,5.3
				s-5.6,8.4-5.6,14.5V181.4z"/>
			<path class="st1" d="M296.7,192.3c-8.4,0-15.5-1.1-21.6-3.4c-6-2.3-11-5.4-14.8-9.5c-3.9-4-6.7-8.8-8.6-14.3
				c-1.8-5.5-2.8-11.5-2.8-17.9v-17.6c0-6.3,0.9-12.2,2.8-17.7c1.8-5.5,4.7-10.3,8.6-14.3c3.9-4,8.8-7.2,14.7-9.6
				c5.9-2.3,13.1-3.5,21.4-3.5c5.1,0,9.9,0.5,14.2,1.4c4.3,1,8,2.2,11.1,3.8c3.1,1.6,5.5,3.4,7.3,5.5c1.8,2.1,2.6,4.2,2.6,6.4
				c0,1.3-0.3,2.8-0.8,4.4c-0.5,1.6-1.3,3.1-2.3,4.5c-1,1.4-2.2,2.6-3.5,3.5c-1.3,1-2.9,1.4-4.6,1.4c-1.2,0-2.4-0.3-3.6-1
				c-1.2-0.7-2.7-1.4-4.3-2.1c-1.6-0.7-3.5-1.4-5.7-2.1c-2.2-0.7-4.9-1-8.1-1c-7.5,0-12.9,1.8-16.3,5.3c-3.4,3.5-5.1,8.5-5.1,15
				v17.6c0,6.5,1.7,11.4,5.1,15c3.4,3.5,8.9,5.3,16.5,5.3c3.2,0,5.9-0.3,8.1-1c2.2-0.7,4.1-1.4,5.7-2.3c1.6-0.9,3-1.7,4.3-2.3
				c1.2-0.7,2.5-1,3.8-1c1.9,0,3.6,0.4,5.2,1.3c1.5,0.9,2.8,2,3.8,3.3c1,1.3,1.8,2.8,2.3,4.4c0.5,1.6,0.8,3.1,0.8,4.4
				c0,2.2-0.9,4.4-2.7,6.5c-1.8,2.1-4.4,4.1-7.6,5.8c-3.2,1.8-7.1,3.2-11.5,4.2C306.7,191.8,301.9,192.3,296.7,192.3z"/>
			<path class="st1" d="M362,34.9c4.3,0,7.9,1.4,10.9,4.1c3,2.7,4.5,6,4.5,9.8c0,3.7-1.5,6.9-4.5,9.7c-3,2.8-6.6,4.2-10.9,4.2
				c-4.4,0-8.1-1.4-11.1-4.2c-3-2.8-4.5-6-4.5-9.7c0-3.8,1.5-7.1,4.5-9.8C353.9,36.2,357.7,34.9,362,34.9z M362,85.9
				c4,0,7.3,0.8,10.1,2.4c2.8,1.6,4.2,3.7,4.2,6.4v86.7c0,2.2-1.4,4.3-4.2,6.2c-2.8,1.9-6.2,2.9-10.1,2.9c-4.1,0-7.5-1-10.1-2.9
				c-2.6-1.9-4-4-4-6.2V94.7c0-2.6,1.3-4.8,4-6.4C354.6,86.7,357.9,85.9,362,85.9z"/>
			<path class="st1" d="M442.6,84.6c6,0,11.8,1,17.3,3.1c5.5,2.1,10.3,4.9,14.5,8.5c4.2,3.6,7.5,7.9,9.9,13
				c2.4,5.1,3.6,10.7,3.6,16.8c0,4.7-0.6,8.4-1.8,11c-1.2,2.6-2.7,4.6-4.7,5.8c-2,1.2-4.2,2-6.6,2.3c-2.4,0.3-4.9,0.4-7.4,0.4h-44.7
				v3.3c0,6.5,2.3,11.6,7,15.4c4.7,3.8,10.9,5.7,18.7,5.7c3.7,0,6.8-0.4,9.5-1.3s5-1.8,7-2.9c2.1-1,3.9-2,5.6-2.9
				c1.7-0.9,3.3-1.3,4.9-1.3c1.6,0,3.1,0.4,4.4,1.3c1.3,0.9,2.5,2,3.4,3.3c1,1.3,1.7,2.7,2.2,4.2c0.5,1.5,0.8,2.7,0.8,3.7
				c0,1.9-0.9,3.9-2.8,6c-1.8,2.1-4.4,4.1-7.8,5.9c-3.4,1.8-7.4,3.3-12.2,4.5c-4.8,1.2-10.1,1.8-15.9,1.8c-7.8,0-14.9-1.1-21.4-3.2
				c-6.5-2.1-12.1-5.2-16.8-9.1c-4.7-4-8.4-8.7-11-14.3c-2.6-5.6-4-11.7-4-18.5v-18.7c0-5.9,1.2-11.5,3.7-16.8
				c2.5-5.4,5.9-10,10.2-14.1c4.3-4,9.4-7.2,15.3-9.6C429.5,85.7,435.8,84.6,442.6,84.6z M454.9,128.8c2.3,0,4-0.4,4.9-1.1
				c1-0.7,1.4-2.3,1.4-4.8c0-5.1-1.9-9.3-5.7-12.5c-3.8-3.2-8.4-4.8-13.6-4.8c-5,0-9.4,1.5-13.3,4.6c-3.9,3.1-5.8,7.3-5.8,12.5v6.2
				H454.9z"/>
			<path class="st1" d="M520.9,25c3.8,0,7.1,0.8,10,2.4c2.9,1.6,4.3,3.7,4.3,6.4v147.6c0,2.2-1.4,4.3-4.3,6.2
				c-2.9,1.9-6.2,2.9-10,2.9c-4.3,0-7.7-1-10.2-2.9c-2.6-1.9-3.8-4-3.8-6.2V33.8c0-2.6,1.3-4.8,3.8-6.4
				C513.2,25.8,516.6,25,520.9,25z"/>
			<path class="st1" d="M594.3,84.6c8.5,0,15.8,1.2,21.8,3.6c6,2.4,10.9,5.6,14.7,9.6c3.8,4,6.6,8.5,8.2,13.6
				c1.7,5.1,2.5,10.5,2.5,16.1v53.9c0,2.5-1.3,4.6-4,6.4s-5.9,2.6-9.9,2.6c-3.7,0-6.7-0.9-9.1-2.6s-3.6-3.9-3.6-6.4V175
				c-4,4.5-8.6,8.6-14,12.1c-5.4,3.5-11.8,5.3-19.5,5.3c-4,0-7.7-0.6-11.1-1.8c-3.4-1.2-6.5-3-9-5.4c-2.6-2.4-4.6-5.5-6.2-9.1
				c-1.5-3.7-2.3-8-2.3-13c0-6.3,1.2-11.5,3.7-15.7c2.5-4.2,6-7.5,10.4-9.9c4.5-2.4,9.9-4.1,16.2-5.2c6.3-1,13.3-1.5,20.9-1.5h9
				v-2.9c0-2.3-0.3-4.7-1-7.1c-0.7-2.4-1.8-4.6-3.3-6.5c-1.5-1.9-3.5-3.5-5.9-4.7c-2.4-1.2-5.5-1.9-9.1-1.9c-4.3,0-7.7,0.4-10.3,1.1
				c-2.6,0.7-4.8,1.5-6.6,2.3c-1.8,0.8-3.2,1.6-4.4,2.3c-1.2,0.7-2.4,1.1-3.7,1.1c-3.2,0-5.6-1.5-7.3-4.6c-1.6-3.1-2.4-6.2-2.4-9.5
				c0-2.2,1.1-4.3,3.3-6.3c2.2-2,5-3.7,8.5-5.1c3.4-1.4,7.2-2.5,11.3-3.3C586.3,85,590.4,84.6,594.3,84.6z M613.2,145.5h-3.3
				c-3.7,0-7.2,0.1-10.7,0.4c-3.4,0.3-6.5,0.9-9.1,1.9c-2.6,1-4.8,2.3-6.4,4.2c-1.6,1.8-2.4,4.3-2.4,7.4c0,4.1,1.1,7.1,3.3,9
				c2.2,1.9,5,2.9,8.4,2.9c2.2,0,4.5-0.6,6.9-1.8c2.4-1.2,4.6-2.7,6.6-4.7c2-2,3.6-4.3,4.8-6.8c1.2-2.6,1.9-5.2,1.9-7.8V145.5z"/>
		</g>
	</g>
</g>
</svg>
