<?xml version="1.0" encoding="utf-8"?>
<!-- Generator: Adobe Illustrator 23.0.0, SVG Export Plug-In . SVG Version: 6.00 Build 0)  -->
<svg version="1.1"
	 id="Capa_1" xmlns:cc="http://creativecommons.org/ns#" xmlns:dc="http://purl.org/dc/elements/1.1/" xmlns:rdf="http://www.w3.org/1999/02/22-rdf-syntax-ns#" xmlns:svg="http://www.w3.org/2000/svg"
	 xmlns="http://www.w3.org/2000/svg" xmlns:xlink="http://www.w3.org/1999/xlink" x="0px" y="0px" viewBox="0 0 512 512"
	 style="enable-background:new 0 0 512 512;" xml:space="preserve">
<style type="text/css">
	.st0{fill:#212121;}
</style>
<g id="g4895">
	<g id="g4893">
		<path id="path4883" class="st0" d="M314.1,324.5l-3-3c-0.1-0.1-0.2-0.2-0.3-0.3c-16.5,9.8-35.5,15.1-55,15.1
			c-24.5,0-47.8-8.1-66.8-23.1c-5.1,3.5-10.4,7.5-15.5,11.7c-4.1,3.3-6.5,8.4-6.5,13.7v25.1H256h89v-8.3l-26.2-26.2L314.1,324.5z"/>
		<path id="path4885" class="st0" d="M259.9,171.5h-4h-4c-18.2,0-33,14.8-33,33V241c0,5.8,2.9,10.8,7.4,13.7V286
			c9,4.6,18.9,7.1,29.4,7.1c10.6,0,20.7-2.5,29.7-7.2v-31c4.4-3,7.4-8,7.4-13.7v-36.6C292.9,186.2,278.1,171.5,259.9,171.5z"/>
		<path id="path4887" class="st0" d="M420,300.2c-19-15.6-39.5-26-43.7-28c-0.5-0.2-0.8-0.7-0.8-1.2v-29.6c3.7-2.5,6.2-6.7,6.2-11.5
			v-30.7c0-15.3-12.4-27.6-27.6-27.6h-3.3h-3.1c9.7,15.8,15.3,33.8,16,52.6c0.8,21-4.4,41.5-15,59.3c0.1,0.1,0.2,0.2,0.3,0.3
			l1.4,1.4l1.6,1.6l4.7,4.7l41.4,41.4h27.2v-21C425.4,307.3,423.4,303,420,300.2z"/>
		<path id="path4889" class="st0" d="M401.7,355.7L347,301.1l-4.7-4.7l-1.6-1.6l0,0l-1.4-1.4l-3.7,3.7l-7.9-7.9
			c31.4-37,29.6-92.5-5.3-127.5C304,143.2,279.8,134,255.8,134s-48.2,9.2-66.6,27.6c-36.8,36.8-36.8,96.5,0,133.3
			c18.4,18.4,42.5,27.6,66.6,27.6c21.7,0,43.3-7.4,60.9-22.3l7.9,7.9l-3.7,3.7l0,0l0,0l3,3l4.7,4.7l54.6,54.6
			c2.6,2.6,5.9,3.8,9.2,3.8s6.7-1.2,9.2-3.8C406.7,369.1,406.7,360.8,401.7,355.7C401.7,355.8,401.7,355.7,401.7,355.7z
			 M311.3,283.9c-15.3,15.3-35.5,23-55.5,23c-20.1,0-40.2-7.6-55.5-23c-30.7-30.7-30.7-80.4,0-111.1c15.3-15.3,35.5-23,55.5-23
			c20.1,0,40.2,7.6,55.5,23C342,203.4,342,253.2,311.3,283.9z"/>
		<path id="path4891" class="st0" d="M163.9,171.5h-2.7h-3.3c-15.3,0-27.6,12.4-27.6,27.6v30.7c0,4.8,2.4,9,6.2,11.5v29.6
			c0,0.6-0.3,1-0.8,1.2c-4.2,2-24.6,12.4-43.7,28c-3.4,2.8-5.4,7.1-5.4,11.5v21h67.5c1.4-7.1,5.1-13.6,10.8-18.3
			c4.6-3.7,9.2-7.3,13.8-10.6C143.2,267.8,138.3,212.9,163.9,171.5z"/>
	</g>
</g>
<g id="g4897">
</g>
<g id="g4899">
</g>
<g id="g4901">
</g>
<g id="g4903">
</g>
<g id="g4905">
</g>
<g id="g4907">
</g>
<g id="g4909">
</g>
<g id="g4911">
</g>
<g id="g4913">
</g>
<g id="g4915">
</g>
<g id="g4917">
</g>
<g id="g4919">
</g>
<g id="g4921">
</g>
<g id="g4923">
</g>
<g id="g4925">
</g>
</svg>
