<svg xmlns="http://www.w3.org/2000/svg" viewBox="0 0 172.81 25.12"><defs><style>.cls-1{fill:#ffc600;}.cls-2{fill:#fff;}</style></defs><title>wecolearn-logo</title><g id="Calque_2" data-name="Calque 2"><g id="Calque_1-2" data-name="Calque 1"><path class="cls-1" d="M43.24,0a3.49,3.49,0,0,0-3.49,3.49,3.84,3.84,0,0,0,.13.91L24.88,18l0-11.36a3.48,3.48,0,1,0-5-3.13,3.43,3.43,0,0,0,.11.86L5.07,18h0l-.36.33a3.16,3.16,0,0,0-1.23-.22A3.48,3.48,0,0,0,0,21.64a3.6,3.6,0,0,0,.13.93A3.48,3.48,0,0,0,7,21.63a3.59,3.59,0,0,0-.12-.93L21.69,7.12l0,11.41a3.49,3.49,0,1,0,5.16,3.06,3.32,3.32,0,0,0-.14-1L42,6.75A3.41,3.41,0,0,0,43.25,7a3.49,3.49,0,1,0,0-7Z"/><path class="cls-1" d="M.1,3.85A1.1,1.1,0,0,0,.12,4v0a1.55,1.55,0,0,0,0,.21v0a.84.84,0,0,0,0,.17v0A2.86,2.86,0,0,0,.38,5l0,0,.09.19h0a2,2,0,0,0,.11.2h0l.12.18h0A3.37,3.37,0,0,0,1,6h0a3.6,3.6,0,0,0,.94.7,3.57,3.57,0,0,0,1.53.38,3.51,3.51,0,0,0,1.54-.39l.23-.13.07,0,.16-.11.07-.06.15-.12.06,0L6,6H6a3.17,3.17,0,0,0,.29-.35h0l.08-.12,0-.06v0l.11-.19h0L6.64,5l0,0h0a2.86,2.86,0,0,0,.15-.41V4.46l0-.13v0l0-.21V4c0-.06,0-.12,0-.18V3.78a1.69,1.69,0,0,0,0-.23A3.48,3.48,0,0,0,3.51.08,3.49,3.49,0,0,0,.08,3.57c0,.07,0,.15,0,.22Z"/><path class="cls-1" d="M111.65,8.29a6.83,6.83,0,0,0-6.82,6.82,4.27,4.27,0,0,1-.46,1.94,4,4,0,0,1-.51.78,4.3,4.3,0,1,1-3.47-7,4.36,4.36,0,0,1,2.57.75.54.54,0,0,0,.71-.07l1.43-1.43a6.76,6.76,0,0,0-4.89-1.75,6.81,6.81,0,0,0,.32,13.62,6.76,6.76,0,0,0,4.59-1.78,6.14,6.14,0,0,0,.51-.51,6.65,6.65,0,0,0,.46-.59,6.81,6.81,0,1,0,5.56-10.75Zm0,11.12a4.31,4.31,0,1,1,4.3-4.3A4.3,4.3,0,0,1,111.65,19.41Z"/><path class="cls-2" d="M77.21,4.15l-3.72,13L69.32,3.74H67.4a.56.56,0,0,0-.54.4l-4,13-3.73-13a.58.58,0,0,0-.55-.41h-2.1l5.12,17.67h2a.58.58,0,0,0,.54-.4L68.16,7.9,72.24,21a.56.56,0,0,0,.54.4h2L79.85,3.74h-2.1A.57.57,0,0,0,77.21,4.15Z"/><path class="cls-2" d="M85.57,8.2a6.49,6.49,0,0,0-6.69,6.73,6.53,6.53,0,0,0,6.78,6.74,6.43,6.43,0,0,0,5.64-3l.3-.5-1.55-.91a.57.57,0,0,0-.79.21h0a3.92,3.92,0,0,1-3.57,1.85,4.24,4.24,0,0,1-4.32-3.25h10a.58.58,0,0,0,.57-.57h0a2,2,0,0,1,0-.25c0-.11,0-.21,0-.32C92,11.69,89.73,8.2,85.57,8.2Zm0,2.29a3.94,3.94,0,0,1,3.93,3.32H81.36A4.13,4.13,0,0,1,85.57,10.49Z"/><path class="cls-2" d="M120.83,21.57h1.77V3.77A.56.56,0,0,0,122,3.2h-1.77V21A.56.56,0,0,0,120.83,21.57Z"/><path class="cls-2" d="M131,8.37a6.49,6.49,0,0,0-6.68,6.73,6.53,6.53,0,0,0,6.78,6.73,6.42,6.42,0,0,0,5.63-2.94l.31-.5-1.56-.92a.57.57,0,0,0-.78.22h0a3.92,3.92,0,0,1-3.57,1.84,4.23,4.23,0,0,1-4.31-3.25h10a.56.56,0,0,0,.56-.56v0c0-.08,0-.16,0-.24s0-.22,0-.32C137.37,11.86,135.12,8.37,131,8.37Zm0,2.29A3.94,3.94,0,0,1,134.89,14h-8.14A4.13,4.13,0,0,1,131,10.66Z"/><path class="cls-2" d="M149.34,10.15a6.25,6.25,0,0,0-4.49-1.78,6.63,6.63,0,0,0-6.68,6.73,6.63,6.63,0,0,0,6.68,6.73,6.25,6.25,0,0,0,4.49-1.78v1.52h2.37V9a.57.57,0,0,0-.57-.56h-1.8ZM145,19.54a4.44,4.44,0,1,1,4.39-4.44A4.38,4.38,0,0,1,145,19.54Z"/><path class="cls-2" d="M156.52,9.66V8.46h-1.78a.56.56,0,0,0-.56.57V21.57h2.34V14.44c0-3.42,2.57-3.69,3.36-3.69h0a.56.56,0,0,0,.56-.57V8.46h-.57A4.75,4.75,0,0,0,156.52,9.66Z"/><path class="cls-2" d="M167.66,8.37A5.11,5.11,0,0,0,164,9.7V8.46h-1.78a.56.56,0,0,0-.56.57V21.57H164v-6.8c0-2.58,1.32-4.11,3.54-4.11a2.68,2.68,0,0,1,2.89,3v7.91h2.36V13.66C172.81,10.44,170.79,8.37,167.66,8.37Z"/></g></g></svg>
