<svg xmlns="http://www.w3.org/2000/svg" viewBox="0 0 252.86 135.43"><defs><style>.cls-1{fill:#ffc600;}</style></defs><title>Fichier 1</title><g id="Calque_2" data-name="Calque 2"><g id="Calque_1-2" data-name="Calque 1"><path class="cls-1" d="M234,0a18.79,18.79,0,0,0-18.19,23.76l-81.24,73.5V35.85a18.89,18.89,0,1,0-26.4-12.34L27.43,97.15h0l-1.94,1.77A18.87,18.87,0,0,0,0,116.57a18.86,18.86,0,1,0,37.71,0,18.59,18.59,0,0,0-.67-5l80.39-73.31V100a18.86,18.86,0,1,0,27.86,16.57,18.64,18.64,0,0,0-.75-5.21l82.77-74.89A18.85,18.85,0,1,0,234,0Z"/><path class="cls-1" d="M28.76,34.93l.37-.24c.29-.19.58-.38.86-.58l.38-.29.82-.67.31-.27c.36-.32.71-.65,1-1h0l.05-.06,0,0a19.81,19.81,0,0,0,1.56-1.87l.06-.1c.15-.2.28-.41.42-.61l.22-.33.06-.09c.21-.35.42-.7.61-1.06l0-.06c.17-.33.34-.66.49-1l.1-.21h0A19,19,0,0,0,37,24.24c0-.09,0-.18.07-.27l.06-.21c.06-.24.13-.49.18-.73l.06-.24q.12-.59.21-1.17l0-.24c0-.32.08-.65.1-1l0-.32c0-.41,0-.81,0-1.22A18.86,18.86,0,0,0,19.2,0,18.86,18.86,0,0,0,.63,18.86c0,.41,0,.81,0,1.21l0,.34c0,.32.06.65.1,1l0,.24q.09.59.21,1.17L1.1,23c.07.32.15.63.24.94,0,.09,0,.18.07.27a19.17,19.17,0,0,0,.82,2.23l.1.21c.15.34.31.67.49,1l0,.07c.19.36.4.71.61,1.06l.06.09c.2.32.42.64.64.94l.06.1A20.28,20.28,0,0,0,5.8,31.82l0,.06a19.15,19.15,0,0,0,5.06,3.77,18.82,18.82,0,0,0,8.29,2.06,18.74,18.74,0,0,0,8.28-2.06C27.92,35.43,28.34,35.19,28.76,34.93Z"/></g></g></svg>